<?xml version="1.0" encoding="UTF-8"?>
<svg width="20px" height="20px" viewBox="0 0 20 20" version="1.1" xmlns="http://www.w3.org/2000/svg" xmlns:xlink="http://www.w3.org/1999/xlink">
    <title>icon/arrow-small</title>
    <defs>
        <linearGradient x1="0%" y1="38.110599%" x2="100%" y2="61.889401%" id="linearGradient-1">
            <stop stop-color="#665DCD" offset="0%"></stop>
            <stop stop-color="#5FA4E6" offset="44.7624153%"></stop>
            <stop stop-color="#D2AB67" offset="100%"></stop>
        </linearGradient>
    </defs>
    <g id="icon/arrow-small" stroke="none" stroke-width="1" fill="none" fill-rule="evenodd">
        <path d="M9.96000518,14.8726963 C10.1652783,14.8555908 10.3600901,14.7729098 10.5149908,14.6370123 L19.5165983,6.85183823 C19.7209202,6.68552988 19.8501686,6.44318958 19.8729646,6.1809022 C19.8948239,5.917666 19.8102429,5.65727626 19.6372806,5.45768386 C19.4633696,5.25906217 19.2172218,5.13837008 18.9539856,5.1250623 C18.6898006,5.11080813 18.4322573,5.20488953 18.239331,5.38450322 L9.87635129,12.6147403 L1.51337112,5.38450322 C1.32045208,5.20488953 1.06290149,5.1108057 0.798716476,5.1250623 C0.535480278,5.13836765 0.289322807,5.25905974 0.115421968,5.45768386 C-0.0575402704,5.65725436 -0.142121321,5.91764167 -0.120262012,6.1809022 C-0.0974538845,6.44318958 0.0317921689,6.68552745 0.236103844,6.85183823 L9.23771133,14.6370123 C9.43633301,14.8109233 9.69766914,14.8955044 9.95998085,14.8726963 L9.96000518,14.8726963 Z" id="Fill-1" fill="url(#linearGradient-1)" transform="translate(9.876351, 10.000000) rotate(-90.000000) translate(-9.876351, -10.000000) "></path>
    </g>
</svg>