<?xml version="1.0" encoding="UTF-8"?>
<svg width="48px" height="48px" viewBox="0 0 48 48" version="1.1" xmlns="http://www.w3.org/2000/svg" xmlns:xlink="http://www.w3.org/1999/xlink">
    <title>icon/location</title>
    <defs>
        <linearGradient x1="15.2777778%" y1="0%" x2="84.7222222%" y2="100%" id="linearGradient-1">
            <stop stop-color="#665DCD" offset="0%"></stop>
            <stop stop-color="#5FA4E6" offset="44.7624153%"></stop>
            <stop stop-color="#D2AB67" offset="100%"></stop>
        </linearGradient>
    </defs>
    <g id="icon/location" stroke="none" stroke-width="1" fill="none" fill-rule="evenodd">
        <path d="M38.1503591,5.8134228 C30.3481594,-1.9378076 17.654519,-1.9378076 9.85164973,5.8134228 C2.04945009,13.567315 2.04945009,26.1823626 9.85164973,33.9369203 L23.9996652,48 L38.1503591,33.9369203 C45.9498803,26.1830281 45.9498803,13.5679805 38.1503591,5.8134228 Z M29.5446373,25.3871428 C27.3030115,27.6148896 23.9288883,28.2829408 20.9991797,27.0768019 C18.0670606,25.8706631 16.1576243,23.0294991 16.1576243,19.876569 C16.1576243,16.7234393 18.0670606,13.8822753 20.9991797,12.6763361 C23.9286874,11.4701973 27.3028776,12.1356532 29.5446373,14.3659952 C31.0276713,15.8190847 31.862062,17.8050713 31.862062,19.8767687 C31.862062,21.9485325 31.0276713,23.9319239 29.5446373,25.3875421 L29.5446373,25.3871428 Z" id="Fill-1" fill="url(#linearGradient-1)"></path>
    </g>
</svg>