<?xml version="1.0" encoding="UTF-8"?>
<svg width="48px" height="48px" viewBox="0 0 48 48" version="1.1" xmlns="http://www.w3.org/2000/svg" xmlns:xlink="http://www.w3.org/1999/xlink">
    <title>icon/reset</title>
    <defs>
        <linearGradient x1="0%" y1="2.51878351%" x2="100%" y2="97.4812165%" id="linearGradient-1">
            <stop stop-color="#665DCD" offset="0%"></stop>
            <stop stop-color="#5FA4E6" offset="44.7624153%"></stop>
            <stop stop-color="#D2AB67" offset="100%"></stop>
        </linearGradient>
    </defs>
    <g id="icon/reset" stroke="none" stroke-width="1" fill="none" fill-rule="evenodd">
        <path d="M47.9977189,8.33257935 C47.9051416,9.05859128 47.2863632,9.59937381 46.5554866,9.59937381 L46.3605904,9.59937381 L41.8292681,9.00494335 C46.1973765,14.6057939 47.7833642,21.8899244 46.1389388,28.8014133 C44.4945133,35.7129022 39.7999771,41.501165 33.3755729,44.5365572 C26.9511688,47.5696419 19.496465,47.5184387 13.1163413,44.3976913 C6.73372288,41.2793513 2.1142077,35.4274743 0.565022595,28.494157 C-0.986850514,21.5608398 0.696579125,14.3007205 5.14018875,8.75818287 C9.58625563,3.21583236 16.3075881,-0.00747101234 23.4117904,0 C24.2181932,0 24.8735435,0.655363349 24.8735435,1.46176609 C24.8735435,2.26816882 24.2181932,2.92351917 23.4117904,2.92351917 C17.1726157,2.92108063 11.2745873,5.76413985 7.3910066,10.6464001 C3.50524306,15.5261034 2.06057848,21.9135864 3.46383151,27.9918548 C4.86708453,34.0701856 8.96720276,39.1767169 14.5975528,41.860984 C20.2300234,44.5432554 26.7759181,44.5140054 32.3820698,41.7757161 C37.987785,39.0398717 42.0389453,33.8944235 43.3866918,27.8043054 C44.7314448,21.7113808 43.225904,15.3409239 39.2963028,10.4950234 L39.0526856,16.1470148 C39.0161387,16.9241675 38.3778768,17.535674 37.6007241,17.5405386 L37.5325073,17.5405386 C37.1451534,17.5283583 36.7773077,17.3602611 36.5166145,17.0727876 C36.2535014,16.7877526 36.1170803,16.407708 36.1390022,16.0203478 L36.5287947,6.94784926 C36.5239239,6.9259211 36.5239239,6.90156062 36.5287947,6.87963246 C36.5239239,6.83091151 36.5239239,6.78218433 36.5287947,6.73345715 L36.5287947,6.5288192 C36.5239239,6.50932957 36.5239239,6.48983995 36.5287947,6.47035032 C36.5531552,6.40944291 36.5823928,6.35097403 36.6164949,6.2949437 C36.6554742,6.22916543 36.7017628,6.16826425 36.7529223,6.10978914 C36.8406225,6.00747016 36.9429477,5.91976373 37.0550146,5.84667608 C37.1207929,5.80282598 37.1890035,5.76384673 37.2596526,5.72973833 L37.4545488,5.66152152 L38.0294959,5.66152152 L46.5949523,6.80164901 C46.9847448,6.81626779 47.3525842,6.98680357 47.6157098,7.27427086 C47.8788228,7.5617444 48.0176825,7.94178273 47.9981929,8.33157524 L47.9977189,8.33257935 Z" id="Fill-1" fill="url(#linearGradient-1)"></path>
    </g>
</svg>