<?xml version="1.0" encoding="UTF-8"?>
<svg width="48px" height="48px" viewBox="0 0 48 48" version="1.1" xmlns="http://www.w3.org/2000/svg" xmlns:xlink="http://www.w3.org/1999/xlink">
    <title>icon/time</title>
    <defs>
        <linearGradient x1="0%" y1="7.98640604%" x2="100%" y2="92.013594%" id="linearGradient-1">
            <stop stop-color="#665DCD" offset="0%"></stop>
            <stop stop-color="#5FA4E6" offset="44.7624153%"></stop>
            <stop stop-color="#D2AB67" offset="100%"></stop>
        </linearGradient>
    </defs>
    <g id="icon/time" stroke="none" stroke-width="1" fill="none" fill-rule="evenodd">
        <path d="M26.0009412,4.00015444 C31.8359169,4.00015444 37.4320025,6.31677944 41.5569654,10.4440891 C47.1141726,16.0013373 49.284407,24.1026022 47.2493814,31.6946413 C45.2165852,39.2849204 39.2853963,45.21564 31.6933572,47.2506655 C24.1030781,49.2834617 16.0022239,47.1132098 10.4449169,41.5559029 C9.92242086,41.0357065 9.92242086,40.1923865 10.4449169,39.6698904 C10.9651133,39.1496823 11.8084333,39.1496823 12.3286414,39.6698904 C15.9542346,43.2952489 20.8721348,45.3325625 26.0008825,45.3325625 C31.1277529,45.3325625 36.0453597,43.2975956 39.670777,39.6698904 C43.2961355,36.0442972 45.333449,31.1268664 45.333449,25.999996 C45.333449,20.8731255 43.2961942,15.9555187 39.670777,12.3301015 C36.0451837,8.70245498 31.1273423,6.66742945 26.0008825,6.66742945 C20.8716654,6.66742945 15.9540586,8.70468431 12.3286414,12.3301015 C11.8084451,12.8503096 10.965125,12.8503096 10.4449169,12.3301015 C9.92242086,11.8076172 9.92242086,10.9642971 10.4449169,10.4440891 C14.5703492,6.3170141 20.1663761,4.00015444 26.0009412,4.00015444 Z M16.0003642,32.6667051 C16.3533022,32.6667051 16.6924653,32.8064958 16.9422557,33.0585801 C17.1943401,33.3083823 17.3341307,33.6475571 17.3341307,34.0004717 C17.3341307,34.3533275 17.1943401,34.6924906 16.9422557,34.9422811 C16.6924535,35.1920716 16.3532787,35.3341561 16.0003642,35.3341561 L16.0003642,35.3341561 L6.66651495,35.3341561 C5.93089499,35.3341561 5.33507744,34.7360506 5.33507744,34.0004306 C5.33507744,33.2648106 5.93089499,32.6667051 6.66651495,32.6667051 L6.66651495,32.6667051 Z M26.0009764,10.0771884 C26.7365963,10.0771884 27.3347019,10.675294 27.3347019,11.4109139 L27.3347019,11.4109139 L27.3347019,25.4474743 L34.237409,32.3525281 C34.7576171,32.8727244 34.7576171,33.7160445 34.237409,34.2362526 C33.7172126,34.7564606 32.8738926,34.7564606 32.3513965,34.2362526 L32.3513965,34.2362526 L25.0567968,26.9416529 C24.8070064,26.6918507 24.6672157,26.3526758 24.6672157,25.9997613 L24.6672157,25.9997613 L24.6672157,11.4111486 C24.6672157,10.6755286 25.2630332,10.0771884 26.0009412,10.0771884 Z M16.0003642,24.6663467 C16.3533022,24.6663467 16.6924653,24.8061374 16.9422557,25.0582217 C17.1943401,25.3080239 17.3341307,25.6471988 17.3341307,26.0001133 C17.3341307,26.3529692 17.1943401,26.6921323 16.9422557,26.9419227 C16.6924535,27.1940071 16.3532787,27.3337977 16.0003642,27.3337977 L16.0003642,27.3337977 L1.33372492,27.3337977 C0.598104961,27.3337977 0,26.7356922 0,26.0000722 C0,25.2644523 0.598104961,24.6663467 1.33372492,24.6663467 L1.33372492,24.6663467 Z M16.0000532,16.6663814 C16.7356732,16.6663814 17.3337787,17.264487 17.3337787,18.0001069 C17.3337787,18.7357269 16.7356732,19.3338324 16.0000532,19.3338324 L16.0000532,19.3338324 L6.66620401,19.3338324 C5.93058406,19.3338324 5.3347665,18.7357269 5.3347665,18.0001069 C5.3347665,17.264487 5.93058406,16.6663814 6.66620401,16.6663814 L6.66620401,16.6663814 Z" id="Combined-Shape" fill="url(#linearGradient-1)"></path>
    </g>
</svg>